<?xml version="1.0" standalone="no"?>
<!DOCTYPE svg PUBLIC "-//W3C//DTD SVG 20010904//EN"
 "http://www.w3.org/TR/2001/REC-SVG-20010904/DTD/svg10.dtd">
<svg version="1.0" xmlns="http://www.w3.org/2000/svg"
 width="128.000000pt" height="128.000000pt" viewBox="0 0 128.000000 128.000000"
 preserveAspectRatio="xMidYMid meet">
<metadata>
Created by potrace 1.14, written by Peter Selinger 2001-2017
</metadata>
<g transform="translate(0.000000,128.000000) scale(0.100000,-0.100000)"
fill="#000000" stroke="none">
<path d="M0 640 l0 -640 640 0 640 0 0 640 0 640 -640 0 -640 0 0 -640z m554
185 c21 -11 32 -12 41 -5 21 17 23 -1 7 -57 -8 -30 -20 -53 -28 -53 -7 0 -11
6 -8 13 10 26 -16 68 -50 82 -95 40 -196 -69 -196 -212 0 -44 5 -58 25 -78 34
-35 78 -33 116 4 35 35 40 81 9 81 -11 0 -20 5 -20 10 0 6 32 10 75 10 70 0
99 -11 56 -23 -14 -3 -24 -26 -40 -97 -39 -164 -70 -210 -142 -210 -56 0 -90
50 -54 80 22 18 47 -5 39 -36 -5 -19 -2 -24 14 -24 30 0 45 25 68 111 l21 79
-32 -20 c-38 -24 -104 -26 -144 -5 -54 27 -76 118 -49 206 15 52 73 117 122
140 50 23 131 24 170 4z m256 -2 c0 -6 -10 -13 -22 -15 -19 -2 -28 -19 -55
-103 -39 -123 -42 -178 -11 -199 49 -34 120 -9 153 53 17 34 65 203 65 230 0
15 -6 21 -21 21 -12 0 -19 5 -17 12 6 18 128 18 128 1 0 -7 -7 -13 -15 -13
-19 0 -28 -19 -66 -136 -54 -171 -92 -214 -194 -214 -56 0 -97 20 -113 55 -17
37 -16 50 18 163 35 120 36 132 10 132 -18 0 -26 10 -16 21 2 2 38 4 80 4 52
0 76 -4 76 -12z"/>
</g>
</svg>
